<svg width="1024" height="1024" viewBox="0 0 1024 1024" xmlns="http://www.w3.org/2000/svg">
  <rect width="1024" height="1024" fill="black"/>
  <path d="M542.47 178.28C429.21 178.28 370.48 265.12 370.48 359.6C370.48 454.09 429.21 540.93 542.47 540.93C607.97 540.93 650.32 509.53 676.96 465.07C679.29 467.24 681.85 469.18 684.59 470.8C705.62 485.74 736.76 481.51 752.85 461.47C768.94 441.42 765.62 411.25 745.66 396.02C750.33 386.42 754.25 376.11 757.33 365.14C753.68 321.81 736.73 281.36 710.29 249.83C683.85 218.3 648.27 196.9 609.16 187.6C587.16 181.05 564.45 178.28 542.47 178.28ZM670.09 423.35C661.92 435.09 653.07 445.22 643.18 453.63C606.83 481.75 564.68 476.69 550.49 476.69C470.35 476.69 437.85 423.94 437.85 359.6C437.85 295.27 470.35 242.52 550.49 242.52C564.68 242.52 606.83 237.46 643.18 265.58C694.38 306.34 699.64 391.34 670.09 423.35Z" fill="#E61410"/>
  <path d="M520.72 171.56C481.41 171.56 444.07 182.33 411.54 202.94C378.37 223.95 343.33 251.76 318.66 286.64C294 321.52 284.78 357.13 284.78 392.75C284.78 471.44 325.72 547.67 400.2 594.64C424.45 610.32 453.21 620.87 483.64 625.27C453.21 629.67 424.45 640.22 400.2 655.9C325.72 702.87 284.78 779.11 284.78 857.79C284.78 893.41 294 929.02 318.66 963.9C343.33 998.78 378.37 1026.59 411.54 1047.6C444.07 1068.21 481.41 1078.98 520.72 1078.98C560.03 1078.98 599.33 1068.21 633.6 1047.6C667.87 1026.99 704.13 998.8 730.92 963.9C757.7 929 769 893.41 769 857.79C769 779.11 726.02 702.87 649.2 655.9C624.95 640.22 596.19 629.67 565.76 625.27C596.19 620.87 624.95 610.32 649.2 594.64C726.02 547.67 769 471.44 769 392.75C769 357.13 757.7 321.52 730.92 286.64C704.13 251.76 667.87 223.56 633.6 202.94C599.33 182.33 560.03 171.56 520.72 171.56ZM653.36 323.58C686.42 370.35 693.25 428.9 674.94 478.85C667.97 497.84 657.09 514.5 643.31 528.06C659.25 538.9 673.64 551.42 685.76 565.67C720.64 606.92 738.7 659.14 738.7 712.19C738.7 765.25 720.64 817.56 685.76 858.71C650.89 899.96 601.52 924.85 551.02 924.85C500.52 924.85 451.15 899.96 416.38 858.71C381.5 817.46 363.44 765.25 363.44 712.19C363.44 659.14 381.5 606.82 416.38 565.67C428.5 551.42 442.9 538.9 458.84 528.06C445.07 514.5 434.18 497.84 427.32 478.85C409.01 428.9 415.84 370.35 448.9 323.58C481.96 276.81 530.48 252.35 580.17 252.35C629.85 252.35 678.38 276.81 711.43 323.58H653.36Z" fill="#E61410"/>
  <path d="M622.56 788.27C622.56 810.24 604.54 828.26 582.57 828.26C560.61 828.26 542.58 810.24 542.58 788.27V741.51H513.25V788.27C513.25 810.24 495.23 828.26 473.26 828.26C451.29 828.26 433.27 810.24 433.27 788.27V736.27C433.27 719.14 447.13 706.18 465.77 706.18H590.06C608.7 706.18 622.56 720.03 622.56 738.67V788.27Z" fill="#E61410"/>
  <path d="M610.59 257.61C582.64 240.18 551.65 242.77 537.61 244.59H530.9C516.86 242.77 485.88 240.18 457.93 257.61C430.33 274.86 409.74 304.98 406.45 346.06C403.16 387.14 421.3 428.22 451.7 444.15C484.33 461.4 512.01 459.15 527.85 454.43C529.78 459.03 532.09 463.5 534.75 467.76C545.83 485.14 562.58 499.97 584.8 509.31C606.8 518.56 633.03 522.11 660.71 517.36C691.11 512.44 716.62 497.97 733.77 481.75C750.93 465.53 760.29 447.14 761.64 435.2C763.83 418.37 778.4 402.74 785.72 385.82C804.62 345.47 794.79 313.79 788.43 300.53C782.07 287.28 771.2 279.78 761.64 278.55C761.64 278.55 761.64 278.55 761.64 279.78C761.64 281 761.64 282.23 760.31 283.46C760.31 284.68 758.99 285.91 758.99 287.14C758.99 288.36 757.67 289.59 757.67 290.82C756.24 293.17 754.57 295.4 752.68 297.46C751.36 298.69 750.04 299.92 748.72 301.14C747.4 302.37 746.08 304.82 744.76 306.05C743.44 307.27 742.12 308.5 740.79 310.95C739.47 313.4 738.15 314.63 736.83 315.86C736.83 317.09 735.51 319.54 735.51 319.54C734.19 320.77 734.19 322 732.87 323.22C731.55 325.68 730.22 327.13 728.9 328.36C728.9 329.59 727.58 330.82 727.58 332.04C726.26 334.5 724.94 335.72 724.94 336.95C723.62 338.18 723.62 339.41 722.3 340.63C720.98 341.86 720.98 344.32 719.65 345.54C718.33 346.77 718.33 348 717.01 349.22C715.69 350.45 715.69 351.68 714.37 352.9C713.05 354.13 713.05 355.36 711.73 357.82C710.41 359.04 710.41 360.27 709.08 361.5C707.76 362.72 707.76 363.95 706.44 365.18C705.12 366.4 705.12 368.86 703.8 368.86C702.48 370.09 702.48 371.31 701.16 372.54C699.84 373.77 699.84 375 698.51 375C698.51 376.22 697.19 377.45 697.19 377.45C695.87 378.68 694.55 379.91 694.55 381.13C693.23 382.36 693.23 382.36 691.91 383.59C691.91 383.59 690.59 384.81 690.59 386.04C689.26 387.27 687.94 387.27 687.94 388.5C686.62 389.72 686.62 389.72 685.3 389.72C683.98 390.95 683.98 392.18 682.65 392.18C682.65 392.18 681.33 393.4 681.33 394.63C680.01 394.63 680.01 395.86 678.69 395.86C677.37 397.09 677.37 397.09 676.04 397.09C674.72 398.31 674.72 398.31 673.4 398.31C672.08 399.54 670.76 399.54 670.76 399.54C669.44 400.77 669.44 400.77 668.11 400.77C666.79 401.99 665.47 401.99 665.47 401.99C664.15 403.22 662.83 403.22 662.83 403.22C661.51 403.22 660.18 404.45 660.18 404.45C658.86 404.45 657.54 405.68 657.54 405.68C656.22 405.68 656.22 406.9 654.9 406.9C653.58 406.9 652.25 408.13 652.25 408.13C650.93 408.13 649.61 409.36 649.61 409.36C648.29 409.36 646.97 409.36 646.97 410.59C645.64 410.59 644.32 410.59 644.32 410.59C643 411.81 641.68 411.81 641.68 411.81C640.36 411.81 639.04 413.04 639.04 413.04C637.71 413.04 636.39 413.04 636.39 413.04C635.07 414.27 633.75 414.27 632.43 414.27C631.1 414.27 629.78 414.27 629.78 414.27C628.46 414.27 627.14 415.5 627.14 415.5C625.82 415.5 624.5 415.5 623.17 415.5C621.85 415.5 620.53 415.5 619.21 415.5C617.89 415.5 616.57 415.5 615.24 415.5C613.92 415.5 612.6 415.5 611.28 415.5C611.28 415.5 608.64 415.5 608.64 415.5C607.32 415.5 605.99 415.5 604.67 415.5C603.35 415.5 602.03 415.5 602.03 415.5C599.39 415.5 598.07 415.5 596.74 415.5C595.42 415.5 594.1 415.5 594.1 414.27C592.78 414.27 591.46 414.27 590.14 414.27C588.81 414.27 587.49 413.04 586.17 413.04C584.85 413.04 583.53 413.04 582.21 411.81C580.88 411.81 579.56 411.81 578.24 410.59C576.92 410.59 575.6 410.59 574.28 409.36C572.95 409.36 572.95 408.13 571.63 408.13C570.31 408.13 568.99 406.9 568.99 406.9C567.67 406.9 566.34 405.68 566.34 405.68C565.02 405.68 563.7 404.45 563.7 404.45C562.38 404.45 561.06 403.22 561.06 403.22C559.73 403.22 558.41 401.99 558.41 401.99C557.09 401.99 555.77 400.77 555.77 400.77C554.45 400.77 553.12 399.54 553.12 399.54C551.8 398.31 550.48 398.31 550.48 398.31C549.16 398.31 547.84 397.09 547.84 397.09C546.51 397.09 545.19 395.86 545.19 395.86C543.87 395.86 543.87 394.63 542.55 394.63C542.55 394.63 541.22 393.4 539.9 392.18C538.58 392.18 538.58 390.95 537.26 389.72C535.94 389.72 535.94 389.72 534.61 387.27C533.29 387.27 533.29 386.04 531.97 384.81C531.97 384.81 530.65 383.59 529.33 382.36C528 381.13 528 379.91 526.68 378.68C525.36 377.45 525.36 376.22 524.04 375C523.51 373.75 522.88 372.56 522.16 371.45C520.41 368.77 518.14 365.18 514.48 363.95C487.33 352.9 478.52 337.68 473.49 318.31C468.69 300.35 469.57 278.41 480.2 262.09C504.36 225.11 547.8 247.83 552.25 250.72C568.63 241.46 586.17 243.91 590.14 244.45L602.03 245.83C616.57 246.64 642.77 252.27 664.78 263.46C688.11 275.04 706.32 293.04 713.11 316.18C720.21 340.39 717.64 351.49 714.37 361.5C713.88 362.95 713.36 364.22 712.83 365.19L714.34 365.18C717.42 365.18 720.14 364.95 722.3 364.5C729.8 363.04 733.77 362.05 752.05 366.15C764.71 368.74 773.85 390.5 750.55 423.76C727.25 457.02 690.58 483.07 655.67 485.34C620.77 487.61 593.74 482.11 578.45 473.9C570.45 469.4 566.34 465.02 566.34 465.02C566.34 465.02 561.06 468.11 550.48 471.45C539.9 474.79 525.36 477.54 510.82 473.9C487.19 468.11 469.72 452.88 457.93 437.66C442.05 417.16 434.58 397.09 436.66 370.09C439.01 325.66 468.33 276.86 534.61 264.09C600.89 251.32 610.53 257.61 610.59 257.61Z" fill="#E61410"/>
</svg>